<svg width="24" height="24" viewBox="0 0 24 24" fill="none" xmlns="http://www.w3.org/2000/svg">
<path fill-rule="evenodd" clip-rule="evenodd" d="M4.27821 4.00666C4.19614 4.00106 4.08253 4.00052 3.86483 4.00052H3C2.44772 4.00052 2 3.5528 2 3.00052C2 2.44823 2.44772 2.00052 3 2.00052H3.86483L3.95147 2.00027C4.26423 1.99894 4.65669 1.99728 5.01419 2.13603C5.32256 2.25572 5.59642 2.45003 5.81126 2.70154C6.06033 2.99313 6.18841 3.36411 6.29048 3.65975L6.31886 3.74161L6.40948 4.00053L18.5938 4.00052C18.9671 4.00049 19.3123 4.00046 19.594 4.02613C19.8871 4.05283 20.2553 4.11633 20.5919 4.34419C21.0358 4.64455 21.3405 5.11045 21.4378 5.63745C21.5116 6.03723 21.4222 6.39995 21.3292 6.67916C21.2398 6.94755 21.1014 7.2638 20.9517 7.60577L18.8356 12.4427L18.8037 12.516C18.6883 12.7828 18.5433 13.1178 18.2958 13.3783C18.082 13.6032 17.8189 13.7753 17.5271 13.881C17.1892 14.0034 16.8242 14.0019 16.5336 14.0007L16.4536 14.0005H9.05422L8.37797 15.0825C8.11779 15.4988 7.96033 15.7527 7.86437 15.9429C7.85835 15.9549 7.85288 15.966 7.8479 15.9763C7.85931 15.9776 7.87165 15.9789 7.88496 15.9801C8.09715 15.9995 8.39587 16.0005 8.88677 16.0005H18C18.5523 16.0005 19 16.4483 19 17.0005C19 17.5528 18.5523 18.0005 18 18.0005H8.844C8.40971 18.0006 8.01725 18.0006 7.70227 17.9717C7.38473 17.9426 6.97162 17.8734 6.61172 17.6061C6.14885 17.2624 5.85685 16.7355 5.81065 16.1608C5.77473 15.714 5.93504 15.327 6.07864 15.0423C6.22108 14.7599 6.4291 14.4271 6.6593 14.0588L7.39752 12.8777L4.43115 4.40231C4.35923 4.19683 4.32119 4.08978 4.28879 4.01417L4.28577 4.00721L4.27821 4.00666ZM9.20948 12.0005L7.10948 6.00053H18.5536C18.9809 6.00053 19.2329 6.00151 19.4126 6.01788L19.4403 6.02062L19.4317 6.04709C19.3747 6.21824 19.2745 6.44955 19.1033 6.84102L17.0033 11.641C16.9223 11.826 16.88 11.9215 16.8453 11.9888L16.8422 11.9947L16.8355 11.9952C16.76 12.0001 16.6555 12.0005 16.4536 12.0005H9.20948Z" fill="#494949"/>
<path d="M7.5 22C8.32843 22 9 21.3285 9 20.5C9 19.6716 8.32843 19 7.5 19C6.67157 19 6 19.6716 6 20.5C6 21.3285 6.67157 22 7.5 22Z" fill="#494949"/>
<path d="M16.5 22C17.3284 22 18 21.3285 18 20.5C18 19.6716 17.3284 19 16.5 19C15.6716 19 15 19.6716 15 20.5C15 21.3285 15.6716 22 16.5 22Z" fill="#494949"/>
</svg>
